<?xml version="1.0" encoding="UTF-8"?>
<svg xmlns="http://www.w3.org/2000/svg" xmlns:xlink="http://www.w3.org/1999/xlink" width="362pt" height="362pt" viewBox="0 0 362 362" version="1.1">
<g id="surface1">
<path style=" stroke:none;fill-rule:evenodd;fill:rgb(92.89856%,10.998535%,14.099121%);fill-opacity:1;" d="M 361.964844 361.964844 L 0.0351563 361.964844 L 0.0351563 0.0351563 L 361.964844 0.0351563 L 361.964844 361.964844 "/>
<path style=" stroke:none;fill-rule:evenodd;fill:rgb(100%,94.898987%,0%);fill-opacity:1;" d="M 147.0625 302.679688 C 148.273438 302.679688 149.199219 303.128906 149.796875 303.996094 C 150.402344 304.84375 150.714844 306.152344 150.714844 307.878906 C 150.714844 309.605469 150.402344 310.910156 149.816406 311.746094 C 149.207031 312.617188 148.289063 313.03125 147.0625 313.03125 C 145.851563 313.03125 144.929688 312.597656 144.332031 311.746094 C 143.722656 310.910156 143.429688 309.582031 143.429688 307.863281 C 143.429688 306.125 143.722656 304.828125 144.335938 303.980469 C 144.929688 303.128906 145.851563 302.679688 147.0625 302.679688 Z M 147.0625 304.363281 C 146.519531 304.363281 146.117188 304.640625 145.875 305.199219 C 145.628906 305.75 145.496094 306.632813 145.496094 307.863281 C 145.496094 309.078125 145.628906 309.96875 145.875 310.507813 C 146.117188 311.0625 146.519531 311.347656 147.0625 311.347656 C 147.601563 311.347656 148.015625 311.0625 148.253906 310.507813 C 148.5 309.941406 148.636719 309.066406 148.636719 307.863281 C 148.636719 306.632813 148.5 305.75 148.253906 305.199219 C 148.015625 304.640625 147.601563 304.363281 147.0625 304.363281 "/>
<path style=" stroke:none;fill-rule:evenodd;fill:rgb(100%,94.898987%,0%);fill-opacity:1;" d="M 154.6875 305.878906 L 152.945313 305.878906 C 152.699219 305.878906 152.519531 305.804688 152.394531 305.699219 C 152.273438 305.570313 152.203125 305.375 152.203125 305.136719 C 152.203125 304.980469 152.246094 304.828125 152.324219 304.707031 C 152.394531 304.570313 152.507813 304.511719 152.617188 304.472656 C 152.671875 304.472656 152.859375 304.449219 153.203125 304.417969 C 153.515625 304.363281 153.800781 304.3125 154.050781 304.226563 C 154.320313 304.148438 154.589844 303.898438 154.859375 303.46875 C 154.882813 303.429688 154.90625 303.390625 154.929688 303.363281 C 154.9375 303.339844 154.953125 303.300781 155.003906 303.230469 C 155.210938 302.875 155.5 302.679688 155.835938 302.679688 C 156.089844 302.679688 156.3125 302.765625 156.460938 302.886719 C 156.613281 303.066406 156.683594 303.261719 156.683594 303.546875 L 156.683594 311.847656 C 156.683594 312.207031 156.601563 312.445313 156.4375 312.621094 C 156.265625 312.816406 156.011719 312.894531 155.679688 312.894531 C 155.355469 312.894531 155.109375 312.816406 154.949219 312.621094 C 154.773438 312.445313 154.6875 312.207031 154.6875 311.847656 L 154.6875 305.878906 "/>
<path style=" stroke:none;fill-rule:evenodd;fill:rgb(100%,94.898987%,0%);fill-opacity:1;" d="M 160.148438 311.691406 C 160.148438 311.347656 160.277344 311.078125 160.5 310.832031 C 160.738281 310.605469 161.03125 310.484375 161.355469 310.484375 C 161.691406 310.484375 161.972656 310.605469 162.222656 310.832031 C 162.449219 311.0625 162.5625 311.347656 162.5625 311.691406 C 162.5625 312.019531 162.449219 312.300781 162.199219 312.558594 C 161.964844 312.777344 161.691406 312.894531 161.355469 312.894531 C 161.03125 312.894531 160.753906 312.777344 160.5 312.523438 C 160.277344 312.300781 160.148438 312.019531 160.148438 311.691406 "/>
<path style=" stroke:none;fill-rule:evenodd;fill:rgb(100%,94.898987%,0%);fill-opacity:1;" d="M 169.453125 302.679688 C 170.667969 302.679688 171.597656 303.128906 172.1875 303.996094 C 172.792969 304.84375 173.105469 306.152344 173.105469 307.878906 C 173.105469 309.605469 172.792969 310.910156 172.199219 311.746094 C 171.597656 312.617188 170.6875 313.03125 169.453125 313.03125 C 168.242188 313.03125 167.320313 312.597656 166.714844 311.746094 C 166.121094 310.910156 165.824219 309.582031 165.824219 307.863281 C 165.824219 306.125 166.121094 304.828125 166.726563 303.980469 C 167.320313 303.128906 168.242188 302.679688 169.453125 302.679688 Z M 169.453125 304.363281 C 168.910156 304.363281 168.523438 304.640625 168.265625 305.199219 C 168.019531 305.75 167.902344 306.632813 167.902344 307.863281 C 167.902344 309.078125 168.019531 309.96875 168.265625 310.507813 C 168.523438 311.0625 168.910156 311.347656 169.453125 311.347656 C 169.992188 311.347656 170.394531 311.0625 170.640625 310.507813 C 170.890625 309.941406 171.007813 309.066406 171.007813 307.863281 C 171.007813 306.632813 170.890625 305.75 170.640625 305.199219 C 170.394531 304.640625 169.992188 304.363281 169.453125 304.363281 "/>
<path style=" stroke:none;fill-rule:evenodd;fill:rgb(100%,94.898987%,0%);fill-opacity:1;" d="M 179.097656 308.800781 C 178.847656 309.027344 178.582031 309.214844 178.253906 309.324219 C 177.9375 309.4375 177.589844 309.515625 177.171875 309.515625 C 176.195313 309.515625 175.402344 309.214844 174.800781 308.613281 C 174.214844 308.019531 173.917969 307.234375 173.917969 306.226563 C 173.917969 305.15625 174.246094 304.3125 174.878906 303.664063 C 175.519531 303.015625 176.375 302.679688 177.441406 302.679688 C 178.660156 302.679688 179.605469 303.105469 180.242188 303.957031 C 180.878906 304.820313 181.203125 306.046875 181.203125 307.664063 C 181.203125 309.417969 180.867188 310.753906 180.175781 311.691406 C 179.484375 312.617188 178.503906 313.074219 177.226563 313.074219 C 176.460938 313.074219 175.789063 312.882813 175.238281 312.484375 C 174.683594 312.082031 174.410156 311.644531 174.410156 311.15625 C 174.410156 310.882813 174.492188 310.664063 174.648438 310.484375 C 174.828125 310.332031 175.042969 310.238281 175.285156 310.238281 C 175.585938 310.238281 175.953125 310.484375 176.375 310.96875 C 176.460938 311.0625 176.507813 311.140625 176.542969 311.164063 C 176.621094 311.273438 176.742188 311.335938 176.890625 311.378906 C 177.0625 311.441406 177.226563 311.484375 177.410156 311.484375 C 177.9375 311.484375 178.347656 311.273438 178.613281 310.832031 C 178.894531 310.402344 179.054688 309.722656 179.097656 308.800781 Z M 177.511719 304.332031 C 177.015625 304.332031 176.652344 304.5 176.359375 304.820313 C 176.09375 305.117188 175.953125 305.554688 175.953125 306.152344 C 175.953125 306.691406 176.09375 307.101563 176.359375 307.425781 C 176.652344 307.722656 177.015625 307.902344 177.511719 307.902344 C 177.992188 307.902344 178.378906 307.746094 178.644531 307.453125 C 178.917969 307.152344 179.054688 306.738281 179.054688 306.203125 C 179.054688 305.632813 178.914063 305.15625 178.625 304.828125 C 178.347656 304.5 177.980469 304.332031 177.511719 304.332031 "/>
<path style=" stroke:none;fill-rule:evenodd;fill:rgb(100%,94.898987%,0%);fill-opacity:1;" d="M 182.542969 311.691406 C 182.542969 311.347656 182.65625 311.078125 182.890625 310.832031 C 183.136719 310.605469 183.429688 310.484375 183.738281 310.484375 C 184.085938 310.484375 184.375 310.605469 184.609375 310.832031 C 184.851563 311.0625 184.960938 311.347656 184.960938 311.691406 C 184.960938 312.019531 184.851563 312.300781 184.609375 312.558594 C 184.363281 312.777344 184.0625 312.894531 183.738281 312.894531 C 183.429688 312.894531 183.148438 312.777344 182.890625 312.523438 C 182.65625 312.300781 182.542969 312.019531 182.542969 311.691406 "/>
<path style=" stroke:none;fill-rule:evenodd;fill:rgb(100%,94.898987%,0%);fill-opacity:1;" d="M 200.765625 308.800781 C 200.535156 309.027344 200.25 309.214844 199.9375 309.324219 C 199.628906 309.4375 199.261719 309.515625 198.871094 309.515625 C 197.886719 309.515625 197.085938 309.214844 196.488281 308.613281 C 195.890625 308.019531 195.609375 307.234375 195.609375 306.226563 C 195.609375 305.15625 195.929688 304.3125 196.570313 303.664063 C 197.210938 303.015625 198.070313 302.679688 199.113281 302.679688 C 200.351563 302.679688 201.285156 303.105469 201.925781 303.957031 C 202.566406 304.820313 202.886719 306.046875 202.886719 307.664063 C 202.886719 309.417969 202.546875 310.753906 201.863281 311.691406 C 201.171875 312.617188 200.1875 313.074219 198.914063 313.074219 C 198.136719 313.074219 197.480469 312.882813 196.917969 312.484375 C 196.355469 312.082031 196.078125 311.644531 196.078125 311.15625 C 196.078125 310.882813 196.175781 310.664063 196.332031 310.484375 C 196.496094 310.332031 196.707031 310.238281 196.976563 310.238281 C 197.257813 310.238281 197.621094 310.484375 198.070313 310.96875 C 198.136719 311.0625 198.195313 311.140625 198.222656 311.164063 C 198.304688 311.273438 198.421875 311.335938 198.574219 311.378906 C 198.730469 311.441406 198.914063 311.484375 199.082031 311.484375 C 199.628906 311.484375 200.023438 311.273438 200.304688 310.832031 C 200.578125 310.402344 200.734375 309.722656 200.765625 308.800781 Z M 199.191406 304.332031 C 198.699219 304.332031 198.316406 304.5 198.050781 304.820313 C 197.773438 305.117188 197.628906 305.554688 197.628906 306.152344 C 197.628906 306.691406 197.773438 307.101563 198.050781 307.425781 C 198.316406 307.722656 198.699219 307.902344 199.191406 307.902344 C 199.664063 307.902344 200.050781 307.746094 200.328125 307.453125 C 200.613281 307.152344 200.734375 306.738281 200.734375 306.203125 C 200.734375 305.632813 200.589844 305.15625 200.308594 304.828125 C 200.023438 304.5 199.65625 304.332031 199.191406 304.332031 "/>
<path style=" stroke:none;fill-rule:evenodd;fill:rgb(100%,94.898987%,0%);fill-opacity:1;" d="M 206.933594 305.878906 L 205.179688 305.878906 C 204.945313 305.878906 204.753906 305.804688 204.628906 305.699219 C 204.507813 305.570313 204.449219 305.375 204.449219 305.136719 C 204.449219 304.980469 204.484375 304.828125 204.5625 304.707031 C 204.636719 304.570313 204.734375 304.511719 204.867188 304.472656 C 204.914063 304.472656 205.101563 304.449219 205.417969 304.417969 C 205.757813 304.363281 206.046875 304.3125 206.285156 304.226563 C 206.554688 304.148438 206.828125 303.898438 207.085938 303.46875 C 207.121094 303.429688 207.140625 303.390625 207.164063 303.363281 C 207.171875 303.339844 207.1875 303.300781 207.230469 303.230469 C 207.457031 302.875 207.734375 302.679688 208.066406 302.679688 C 208.34375 302.679688 208.558594 302.765625 208.714844 302.886719 C 208.847656 303.066406 208.917969 303.261719 208.917969 303.546875 L 208.917969 311.847656 C 208.917969 312.207031 208.839844 312.445313 208.671875 312.621094 C 208.503906 312.816406 208.257813 312.894531 207.925781 312.894531 C 207.601563 312.894531 207.355469 312.816406 207.183594 312.621094 C 207.015625 312.445313 206.933594 312.207031 206.933594 311.847656 L 206.933594 305.878906 "/>
<path style=" stroke:none;fill-rule:evenodd;fill:rgb(100%,94.898987%,0%);fill-opacity:1;" d="M 190.632813 305.878906 L 188.882813 305.878906 C 188.644531 305.878906 188.445313 305.804688 188.335938 305.699219 C 188.214844 305.570313 188.152344 305.375 188.152344 305.136719 C 188.152344 304.980469 188.191406 304.828125 188.261719 304.707031 C 188.339844 304.570313 188.445313 304.511719 188.566406 304.472656 C 188.613281 304.472656 188.804688 304.449219 189.121094 304.417969 C 189.457031 304.363281 189.75 304.3125 189.996094 304.226563 C 190.265625 304.148438 190.527344 303.898438 190.796875 303.46875 C 190.835938 303.429688 190.835938 303.390625 190.863281 303.363281 C 190.882813 303.339844 190.898438 303.300781 190.941406 303.230469 C 191.152344 302.875 191.425781 302.679688 191.773438 302.679688 C 192.046875 302.679688 192.253906 302.765625 192.40625 302.886719 C 192.546875 303.066406 192.636719 303.261719 192.636719 303.546875 L 192.636719 311.847656 C 192.636719 312.207031 192.539063 312.445313 192.378906 312.621094 C 192.210938 312.816406 191.957031 312.894531 191.628906 312.894531 C 191.300781 312.894531 191.054688 312.816406 190.886719 312.621094 C 190.714844 312.445313 190.632813 312.207031 190.632813 311.847656 L 190.632813 305.878906 "/>
<path style=" stroke:none;fill-rule:evenodd;fill:rgb(100%,94.898987%,0%);fill-opacity:1;" d="M 215.628906 302.679688 C 216.84375 302.679688 217.765625 303.128906 218.367188 303.996094 C 218.988281 304.84375 219.277344 306.152344 219.277344 307.878906 C 219.277344 309.605469 218.988281 310.910156 218.375 311.746094 C 217.777344 312.617188 216.859375 313.03125 215.628906 313.03125 C 214.414063 313.03125 213.492188 312.597656 212.902344 311.746094 C 212.292969 310.910156 211.984375 309.582031 211.984375 307.863281 C 211.984375 306.125 212.292969 304.828125 212.902344 303.980469 C 213.492188 303.128906 214.421875 302.679688 215.628906 302.679688 Z M 215.628906 304.363281 C 215.089844 304.363281 214.695313 304.640625 214.449219 305.199219 C 214.191406 305.75 214.074219 306.632813 214.074219 307.863281 C 214.074219 309.078125 214.191406 309.96875 214.449219 310.507813 C 214.695313 311.0625 215.089844 311.347656 215.628906 311.347656 C 216.175781 311.347656 216.582031 311.0625 216.832031 310.507813 C 217.082031 309.941406 217.195313 309.066406 217.195313 307.863281 C 217.195313 306.632813 217.082031 305.75 216.832031 305.199219 C 216.582031 304.640625 216.175781 304.363281 215.628906 304.363281 "/>
<path style=" stroke:none;fill-rule:evenodd;fill:rgb(100%,100%,100%);fill-opacity:1;" d="M 106.609375 98.113281 C 107.476563 97.175781 108.03125 96.417969 108.308594 95.851563 C 108.589844 95.289063 108.699219 94.691406 108.652344 94.097656 C 108.617188 93.46875 108.4375 92.863281 108.132813 92.257813 C 107.820313 91.652344 107.402344 91.109375 106.878906 90.632813 C 106.242188 90.050781 105.558594 89.683594 104.886719 89.53125 C 104.179688 89.382813 103.449219 89.445313 102.722656 89.742188 C 102.730469 88.953125 102.652344 88.277344 102.425781 87.726563 C 102.214844 87.164063 101.839844 86.648438 101.34375 86.179688 C 100.769531 85.664063 100.175781 85.324219 99.5625 85.160156 C 98.933594 85.003906 98.324219 85.007813 97.695313 85.210938 C 97.25 85.347656 96.816406 85.5625 96.402344 85.890625 C 95.988281 86.21875 95.359375 86.835938 94.542969 87.730469 L 91.863281 90.695313 L 103.660156 101.386719 Z M 99.097656 91.929688 L 98.964844 92.105469 L 96.292969 89.691406 C 96.324219 89.660156 96.351563 89.636719 96.386719 89.585938 C 96.402344 89.542969 96.472656 89.484375 96.542969 89.394531 C 96.964844 88.929688 97.402344 88.664063 97.851563 88.601563 C 98.304688 88.550781 98.753906 88.714844 99.15625 89.085938 C 99.636719 89.523438 99.871094 89.972656 99.863281 90.429688 C 99.863281 90.902344 99.605469 91.40625 99.097656 91.929688 Z M 101.164063 93.769531 C 101.730469 93.152344 102.273438 92.8125 102.746094 92.71875 C 103.25 92.648438 103.746094 92.835938 104.246094 93.289063 C 104.800781 93.769531 105.0625 94.28125 105.0625 94.832031 C 105.0625 95.371094 104.804688 95.929688 104.277344 96.507813 L 104.0625 96.734375 L 100.996094 93.972656 L 101.164063 93.769531 "/>
<path style=" stroke:none;fill-rule:evenodd;fill:rgb(100%,100%,100%);fill-opacity:1;" d="M 139.109375 74.089844 L 138.300781 71.101563 L 140.96875 69.925781 L 142.613281 72.539063 L 146.019531 71.03125 L 136.480469 57.851563 L 132.433594 59.636719 L 135.667969 75.589844 Z M 139.445313 67.453125 L 137.492188 68.316406 L 135.664063 61.546875 Z M 139.445313 67.453125 "/>
<path style=" stroke:none;fill-rule:evenodd;fill:rgb(100%,100%,100%);fill-opacity:1;" d="M 176.859375 61.355469 C 176.96875 62.125 177.175781 62.757813 177.4375 63.238281 C 177.847656 63.941406 178.351563 64.433594 179.023438 64.761719 C 179.703125 65.082031 180.558594 65.238281 181.617188 65.238281 C 182.777344 65.25 183.703125 65.082031 184.4375 64.761719 C 185.140625 64.425781 185.703125 63.914063 186.085938 63.183594 C 186.3125 62.761719 186.480469 62.277344 186.597656 61.703125 C 186.675781 61.144531 186.742188 60.285156 186.753906 59.132813 L 186.804688 48.996094 L 183.121094 48.960938 L 183.074219 58.925781 C 183.058594 60.398438 182.957031 61.328125 182.769531 61.695313 C 182.597656 62.0625 182.238281 62.257813 181.753906 62.253906 C 181.273438 62.253906 180.929688 62.0625 180.742188 61.703125 C 180.546875 61.351563 180.460938 60.425781 180.480469 58.910156 L 180.535156 48.953125 L 176.773438 48.925781 L 176.71875 57.484375 C 176.707031 59.289063 176.753906 60.597656 176.859375 61.355469 "/>
<path style=" stroke:none;fill-rule:evenodd;fill:rgb(100%,100%,100%);fill-opacity:1;" d="M 224.527344 67.699219 L 225.242188 68.015625 C 225.851563 68.292969 226.191406 68.65625 226.265625 69.074219 C 226.359375 69.519531 226.191406 70.167969 225.785156 71.050781 C 225.746094 71.164063 225.632813 71.355469 225.464844 71.6875 C 225.304688 72.011719 225.179688 72.289063 225.066406 72.539063 C 224.878906 72.898438 224.761719 73.261719 224.644531 73.605469 C 224.535156 73.953125 224.453125 74.304688 224.410156 74.632813 L 228.335938 76.433594 C 228.027344 75.804688 228.234375 74.664063 228.960938 73.019531 C 229.101563 72.675781 229.230469 72.398438 229.292969 72.226563 C 229.292969 72.226563 229.304688 72.199219 229.316406 72.175781 C 230.054688 70.40625 230.019531 69.066406 229.164063 68.113281 C 229.96875 68.039063 230.621094 67.785156 231.171875 67.351563 C 231.726563 66.917969 232.195313 66.296875 232.570313 65.453125 C 232.886719 64.773438 233.066406 64.132813 233.085938 63.550781 C 233.101563 62.964844 232.988281 62.410156 232.726563 61.886719 C 232.5 61.433594 232.144531 61.027344 231.640625 60.652344 C 231.113281 60.273438 230.222656 59.792969 228.988281 59.230469 L 225.183594 57.484375 L 218.539063 71.941406 L 221.878906 73.472656 Z M 227.382813 61.507813 C 227.441406 61.53125 227.523438 61.585938 227.609375 61.601563 C 227.703125 61.644531 227.773438 61.652344 227.828125 61.683594 C 228.511719 62 228.960938 62.378906 229.136719 62.761719 C 229.3125 63.160156 229.253906 63.664063 228.960938 64.28125 C 228.664063 64.976563 228.28125 65.363281 227.863281 65.519531 C 227.445313 65.65625 226.886719 65.566406 226.191406 65.238281 C 226.144531 65.226563 226.066406 65.191406 225.980469 65.140625 C 225.890625 65.089844 225.832031 65.0625 225.761719 65.039063 L 227.382813 61.507813 "/>
<path style=" stroke:none;fill-rule:evenodd;fill:rgb(100%,100%,100%);fill-opacity:1;" d="M 256.523438 99.582031 C 257.28125 100.464844 258.03125 101.058594 258.742188 101.386719 C 259.460938 101.703125 260.214844 101.773438 261.023438 101.574219 C 261.484375 101.484375 261.957031 101.285156 262.457031 100.988281 C 262.953125 100.683594 263.644531 100.164063 264.496094 99.417969 L 272.152344 92.761719 L 269.734375 89.972656 L 262.242188 96.507813 C 261.109375 97.464844 260.355469 98.007813 259.953125 98.113281 C 259.550781 98.21875 259.1875 98.082031 258.859375 97.71875 C 258.550781 97.339844 258.46875 96.972656 258.601563 96.601563 C 258.746094 96.21875 259.398438 95.535156 260.53125 94.554688 L 268.046875 88.019531 L 265.578125 85.1875 L 259.121094 90.796875 C 257.742188 91.980469 256.800781 92.863281 256.292969 93.441406 C 255.796875 94.035156 255.46875 94.605469 255.261719 95.136719 C 255.011719 95.890625 254.984375 96.601563 255.1875 97.324219 C 255.390625 98.03125 255.84375 98.785156 256.523438 99.582031 "/>
<path style=" stroke:none;fill-rule:evenodd;fill:rgb(100%,100%,100%);fill-opacity:1;" d="M 273.765625 121.964844 C 273.3125 118.511719 270.160156 116.007813 266.75 116.382813 L 249.929688 117.296875 C 223.824219 117.296875 199.476563 110.804688 184.8125 99.9375 C 182.410156 98.261719 179.410156 98.269531 177.148438 99.964844 C 162.503906 110.808594 138.152344 117.296875 112.011719 117.296875 L 95.195313 116.382813 C 95.035156 116.394531 90.710938 117.664063 90.710938 117.664063 L 88.261719 121.835938 C 85.222656 147.757813 89.257813 174.984375 99.886719 200.78125 C 110.796875 227.230469 128.414063 251.339844 150.851563 270.554688 C 159.316406 277.800781 168.367188 284.292969 177.726563 289.808594 C 179.742188 291.054688 182.28125 291.046875 184.339844 289.765625 C 193.644531 284.265625 202.664063 277.800781 211.125 270.554688 C 233.550781 251.359375 251.171875 227.230469 262.097656 200.78125 C 272.722656 175.023438 276.757813 147.773438 273.765625 121.964844 "/>
<path style=" stroke:none;fill-rule:evenodd;fill:rgb(92.89856%,10.998535%,14.099121%);fill-opacity:1;" d="M 180.980469 140.035156 C 155.261719 140.035156 134.324219 160.964844 134.324219 186.699219 C 134.324219 212.425781 155.261719 233.359375 180.980469 233.359375 C 206.714844 233.359375 227.648438 212.425781 227.648438 186.699219 C 227.648438 160.964844 206.714844 140.035156 180.980469 140.035156 Z M 180.980469 229.355469 C 157.480469 229.355469 138.335938 210.214844 138.335938 186.699219 C 138.335938 163.1875 157.480469 144.058594 180.980469 144.058594 C 204.507813 144.058594 223.621094 163.1875 223.621094 186.699219 C 223.621094 210.214844 204.507813 229.355469 180.980469 229.355469 "/>
<path style=" stroke:none;fill-rule:evenodd;fill:rgb(92.89856%,10.998535%,14.099121%);fill-opacity:1;" d="M 267.265625 121.050781 C 261.59375 121.667969 255.769531 121.980469 249.960938 121.980469 C 222.871094 121.980469 197.457031 115.144531 182.023438 103.71875 C 182.003906 103.703125 181.933594 103.640625 181.933594 103.640625 C 181.335938 103.238281 180.539063 103.289063 179.964844 103.71875 C 164.519531 115.144531 139.121094 121.980469 112.011719 121.980469 C 106.203125 121.980469 100.382813 121.667969 94.707031 121.050781 C 93.808594 120.949219 92.976563 121.605469 92.886719 122.515625 C 89.980469 147.535156 93.90625 173.980469 104.214844 199 C 114.847656 224.730469 132.019531 248.242188 153.894531 266.980469 C 162.101563 274.011719 170.910156 280.34375 180.101563 285.773438 C 180.097656 285.773438 180.164063 285.796875 180.164063 285.796875 C 180.699219 286.148438 181.339844 286.097656 181.871094 285.773438 C 191.066406 280.34375 199.878906 274.011719 208.066406 266.980469 C 229.960938 248.242188 247.128906 224.730469 257.765625 199 C 268.078125 173.980469 271.996094 147.535156 269.09375 122.515625 C 268.976563 121.605469 268.167969 120.949219 267.265625 121.050781 Z M 203.214844 120.238281 C 209.773438 122.429688 216.867188 124.144531 224.300781 125.351563 L 224.300781 152.300781 C 218.734375 145.296875 211.507813 139.675781 203.214844 136.023438 Z M 172.367188 114.628906 C 175.460938 113.074219 178.34375 111.390625 180.980469 109.609375 C 183.636719 111.390625 186.523438 113.074219 189.601563 114.628906 L 189.601563 132.039063 C 186.789063 131.597656 183.925781 131.367188 180.980469 131.367188 C 178.058594 131.367188 175.179688 131.597656 172.367188 132.039063 Z M 137.648438 125.351563 C 145.101563 124.144531 152.199219 122.429688 158.765625 120.238281 L 158.765625 136.023438 C 150.476563 139.675781 143.246094 145.296875 137.648438 152.300781 Z M 124.054688 224.867188 C 117.402344 214.644531 111.890625 203.863281 107.644531 192.746094 L 107.644531 127.320313 C 109.09375 127.371094 110.5625 127.410156 112.011719 127.410156 C 116.058594 127.410156 120.105469 127.253906 124.054688 126.949219 Z M 158.765625 264.003906 C 158.328125 263.640625 157.875 263.265625 157.425781 262.882813 C 150.257813 256.730469 143.671875 250.089844 137.648438 243.058594 L 137.648438 221.105469 C 143.246094 228.097656 150.476563 233.738281 158.765625 237.371094 Z M 189.601563 274.359375 C 186.773438 276.296875 183.894531 278.175781 180.980469 279.945313 C 178.066406 278.175781 175.191406 276.296875 172.367188 274.359375 L 172.367188 241.367188 C 175.179688 241.804688 178.058594 242.039063 180.980469 242.039063 C 183.925781 242.039063 186.789063 241.804688 189.601563 241.367188 Z M 224.300781 243.058594 C 218.3125 250.089844 211.714844 256.730469 204.550781 262.882813 C 204.109375 263.265625 203.652344 263.640625 203.214844 264.003906 L 203.214844 237.371094 C 211.507813 233.738281 218.734375 228.097656 224.300781 221.105469 Z M 180.980469 238.273438 C 152.550781 238.273438 129.417969 215.136719 129.417969 186.699219 C 129.417969 158.257813 152.550781 135.121094 180.980469 135.121094 C 209.425781 135.121094 232.570313 158.257813 232.570313 186.699219 C 232.570313 215.136719 209.425781 238.273438 180.980469 238.273438 Z M 254.3125 192.773438 C 250.078125 203.867188 244.5625 214.644531 237.917969 224.867188 L 237.917969 126.949219 C 241.878906 127.253906 245.902344 127.410156 249.960938 127.410156 C 251.417969 127.410156 252.878906 127.371094 254.3125 127.320313 L 254.3125 192.773438 "/>
<path style=" stroke:none;fill-rule:evenodd;fill:rgb(92.89856%,10.998535%,14.099121%);fill-opacity:1;" d="M 162.234375 170.601563 C 164.113281 170.601563 165.632813 169.054688 165.632813 167.144531 C 165.632813 165.261719 164.113281 163.726563 162.234375 163.726563 L 152.429688 163.726563 C 150.570313 163.726563 149.03125 165.261719 149.03125 167.144531 L 149.03125 206.726563 C 149.03125 208.621094 150.570313 210.160156 152.429688 210.160156 L 162.234375 210.160156 C 164.113281 210.160156 165.632813 208.621094 165.632813 206.726563 C 165.632813 204.816406 164.113281 203.28125 162.234375 203.28125 C 162.234375 203.28125 156.761719 203.28125 155.835938 203.28125 C 155.835938 202.289063 155.835938 191.367188 155.835938 190.386719 C 156.695313 190.386719 160.320313 190.386719 160.320313 190.386719 C 162.199219 190.386719 163.722656 188.824219 163.722656 186.941406 C 163.722656 185.046875 162.199219 183.492188 160.320313 183.492188 C 160.320313 183.492188 156.695313 183.492188 155.835938 183.492188 C 155.835938 182.507813 155.835938 171.582031 155.835938 170.601563 C 156.761719 170.601563 162.234375 170.601563 162.234375 170.601563 "/>
<path style=" stroke:none;fill-rule:evenodd;fill:rgb(92.89856%,10.998535%,14.099121%);fill-opacity:1;" d="M 180.886719 150.804688 C 174.796875 150.804688 169.851563 156.046875 169.851563 162.496094 L 169.851563 206.914063 C 169.851563 213.363281 174.796875 218.617188 180.886719 218.617188 C 186.992188 218.617188 191.941406 213.363281 191.941406 206.914063 L 191.941406 203.886719 C 191.941406 202.015625 190.421875 200.496094 188.578125 200.496094 C 186.738281 200.496094 185.234375 202.015625 185.234375 203.886719 L 185.234375 206.914063 C 185.234375 209.613281 183.285156 211.8125 180.886719 211.8125 C 178.503906 211.8125 176.5625 209.613281 176.5625 206.914063 L 176.5625 162.496094 C 176.5625 159.796875 178.503906 157.601563 180.886719 157.601563 C 183.285156 157.601563 185.234375 159.796875 185.234375 162.496094 L 185.234375 165.519531 C 185.234375 167.402344 186.738281 168.921875 188.578125 168.921875 C 190.421875 168.921875 191.941406 167.402344 191.941406 165.519531 L 191.941406 162.496094 C 191.941406 156.046875 186.992188 150.804688 180.886719 150.804688 "/>
<path style=" stroke:none;fill-rule:evenodd;fill:rgb(92.89856%,10.998535%,14.099121%);fill-opacity:1;" d="M 207.210938 166.953125 C 207.210938 166.953125 207.210938 179.386719 207.210938 184.730469 C 204.710938 175.683594 202.445313 166.292969 202.414063 166.191406 C 201.953125 164.554688 200.351563 163.507813 198.675781 163.75 C 197.007813 163.984375 195.761719 165.4375 195.761719 167.105469 L 195.761719 206.765625 C 195.761719 208.632813 197.269531 210.160156 199.160156 210.160156 C 201.035156 210.160156 202.546875 208.632813 202.546875 206.765625 C 202.546875 206.765625 202.546875 194.332031 202.546875 188.992188 C 205.058594 198.039063 207.316406 207.421875 207.332031 207.523438 C 207.820313 209.148438 209.433594 210.195313 211.09375 209.953125 C 212.746094 209.71875 214.019531 208.273438 214.019531 206.601563 L 214.019531 166.953125 C 214.019531 165.066406 212.480469 163.5625 210.621094 163.5625 C 208.730469 163.5625 207.210938 165.066406 207.210938 166.953125 "/>
<path style=" stroke:none;fill-rule:evenodd;fill:rgb(100%,94.898987%,0%);fill-opacity:1;" d="M 147.664063 79.964844 L 150.414063 88.417969 L 159.300781 88.417969 L 152.109375 93.640625 L 154.855469 102.09375 L 147.664063 96.867188 L 140.476563 102.09375 L 143.222656 93.640625 L 136.035156 88.417969 L 144.921875 88.417969 L 147.664063 79.964844 "/>
<path style=" stroke:none;fill-rule:evenodd;fill:rgb(100%,94.898987%,0%);fill-opacity:1;" d="M 215.308594 79.964844 L 218.054688 88.417969 L 226.941406 88.417969 L 219.75 93.640625 L 222.496094 102.09375 L 215.308594 96.867188 L 208.121094 102.09375 L 210.863281 93.640625 L 203.675781 88.417969 L 212.5625 88.417969 L 215.308594 79.964844 "/>
</g>
</svg>
